<svg width="32" height="32" viewBox="0 0 32 32" fill="none" xmlns="http://www.w3.org/2000/svg">
<path d="M7.00004 7C7.00004 6.73478 6.89469 6.48043 6.70715 6.29289C6.51961 6.10536 6.26526 6 6.00004 6C5.73483 6 5.48047 6.10536 5.29294 6.29289C5.1054 6.48043 5.00004 6.73478 5.00004 7V24.586L2.70804 22.292C2.61507 22.199 2.50469 22.1253 2.38321 22.075C2.26173 22.0246 2.13153 21.9987 2.00004 21.9987C1.86855 21.9987 1.73835 22.0246 1.61688 22.075C1.4954 22.1253 1.38502 22.199 1.29204 22.292C1.19907 22.385 1.12531 22.4954 1.075 22.6168C1.02468 22.7383 0.998779 22.8685 0.998779 23C0.998779 23.1315 1.02468 23.2617 1.075 23.3832C1.12531 23.5046 1.19907 23.615 1.29204 23.708L5.29204 27.706L5.30604 27.72C5.49379 27.9031 5.74629 28.0045 6.00851 28.0023C6.27074 28.0001 6.52146 27.8943 6.70604 27.708L10.706 23.708C10.8938 23.5205 10.9994 23.2661 10.9996 23.0007C10.9998 22.7353 10.8946 22.4808 10.707 22.293C10.5195 22.1052 10.2651 21.9996 9.99975 21.9994C9.73439 21.9993 9.47982 22.1045 9.29204 22.292L7.00004 24.586V7ZM15 8C14.7348 8 14.4805 7.89464 14.2929 7.70711C14.1054 7.51957 14 7.26522 14 7C14 6.73478 14.1054 6.48043 14.2929 6.29289C14.4805 6.10536 14.7348 6 15 6H17C17.2653 6 17.5196 6.10536 17.7071 6.29289C17.8947 6.48043 18 6.73478 18 7C18 7.26522 17.8947 7.51957 17.7071 7.70711C17.5196 7.89464 17.2653 8 17 8H15ZM15 14C14.7348 14 14.4805 13.8946 14.2929 13.7071C14.1054 13.5196 14 13.2652 14 13C14 12.7348 14.1054 12.4804 14.2929 12.2929C14.4805 12.1054 14.7348 12 15 12H21C21.2653 12 21.5196 12.1054 21.7071 12.2929C21.8947 12.4804 22 12.7348 22 13C22 13.2652 21.8947 13.5196 21.7071 13.7071C21.5196 13.8946 21.2653 14 21 14H15ZM15 20C14.7348 20 14.4805 19.8946 14.2929 19.7071C14.1054 19.5196 14 19.2652 14 19C14 18.7348 14.1054 18.4804 14.2929 18.2929C14.4805 18.1054 14.7348 18 15 18H25C25.2653 18 25.5196 18.1054 25.7071 18.2929C25.8947 18.4804 26 18.7348 26 19C26 19.2652 25.8947 19.5196 25.7071 19.7071C25.5196 19.8946 25.2653 20 25 20H15ZM14 25C14 25.2652 14.1054 25.5196 14.2929 25.7071C14.4805 25.8946 14.7348 26 15 26H29C29.2653 26 29.5196 25.8946 29.7071 25.7071C29.8947 25.5196 30 25.2652 30 25C30 24.7348 29.8947 24.4804 29.7071 24.2929C29.5196 24.1054 29.2653 24 29 24H15C14.7348 24 14.4805 24.1054 14.2929 24.2929C14.1054 24.4804 14 24.7348 14 25Z" fill="#E2B714"/>
</svg>
