<svg width="64" height="64" viewBox="0 0 64 64" fill="none" xmlns="http://www.w3.org/2000/svg">
<path d="M14.0001 14C14.0001 13.4696 13.7894 12.9609 13.4143 12.5858C13.0392 12.2107 12.5305 12 12.0001 12C11.4697 12 10.9609 12.2107 10.5859 12.5858C10.2108 12.9609 10.0001 13.4696 10.0001 14V49.172L5.41608 44.584C5.23013 44.398 5.00938 44.2505 4.76642 44.1499C4.52346 44.0493 4.26306 43.9975 4.00008 43.9975C3.73711 43.9975 3.47671 44.0493 3.23375 44.1499C2.99079 44.2505 2.77004 44.398 2.58409 44.584C2.39813 44.77 2.25063 44.9907 2.14999 45.2337C2.04936 45.4766 1.99756 45.737 1.99756 46C1.99756 46.263 2.04936 46.5234 2.14999 46.7663C2.25063 47.0093 2.39813 47.23 2.58409 47.416L10.5841 55.412L10.6121 55.44C10.9876 55.8062 11.4926 56.0091 12.017 56.0046C12.5415 56.0001 13.0429 55.7885 13.4121 55.416L21.4121 47.416C21.7876 47.041 21.9988 46.5321 21.9992 46.0014C21.9996 45.4707 21.7891 44.9615 21.4141 44.586C21.0391 44.2105 20.5302 43.9993 19.9995 43.9989C19.4688 43.9985 18.9596 44.209 18.5841 44.584L14.0001 49.172V14ZM30.0001 16C29.4697 16 28.9609 15.7893 28.5859 15.4142C28.2108 15.0391 28.0001 14.5304 28.0001 14C28.0001 13.4696 28.2108 12.9609 28.5859 12.5858C28.9609 12.2107 29.4697 12 30.0001 12H34.0001C34.5305 12 35.0392 12.2107 35.4143 12.5858C35.7894 12.9609 36.0001 13.4696 36.0001 14C36.0001 14.5304 35.7894 15.0391 35.4143 15.4142C35.0392 15.7893 34.5305 16 34.0001 16H30.0001ZM30.0001 28C29.4697 28 28.9609 27.7893 28.5859 27.4142C28.2108 27.0391 28.0001 26.5304 28.0001 26C28.0001 25.4696 28.2108 24.9609 28.5859 24.5858C28.9609 24.2107 29.4697 24 30.0001 24H42.0001C42.5305 24 43.0392 24.2107 43.4143 24.5858C43.7894 24.9609 44.0001 25.4696 44.0001 26C44.0001 26.5304 43.7894 27.0391 43.4143 27.4142C43.0392 27.7893 42.5305 28 42.0001 28H30.0001ZM30.0001 40C29.4697 40 28.9609 39.7893 28.5859 39.4142C28.2108 39.0391 28.0001 38.5304 28.0001 38C28.0001 37.4696 28.2108 36.9609 28.5859 36.5858C28.9609 36.2107 29.4697 36 30.0001 36H50.0001C50.5305 36 51.0392 36.2107 51.4143 36.5858C51.7894 36.9609 52.0001 37.4696 52.0001 38C52.0001 38.5304 51.7894 39.0391 51.4143 39.4142C51.0392 39.7893 50.5305 40 50.0001 40H30.0001ZM28.0001 50C28.0001 50.5304 28.2108 51.0391 28.5859 51.4142C28.9609 51.7893 29.4697 52 30.0001 52H58.0001C58.5305 52 59.0392 51.7893 59.4143 51.4142C59.7894 51.0391 60.0001 50.5304 60.0001 50C60.0001 49.4696 59.7894 48.9609 59.4143 48.5858C59.0392 48.2107 58.5305 48 58.0001 48H30.0001C29.4697 48 28.9609 48.2107 28.5859 48.5858C28.2108 48.9609 28.0001 49.4696 28.0001 50Z" fill="#E2B714"/>
</svg>
